<svg width="20" height="20" viewBox="0 0 20 20" fill="none" xmlns="http://www.w3.org/2000/svg">
<mask id="mask0_16_152" style="mask-type:luminance" maskUnits="userSpaceOnUse" x="0" y="0" width="20" height="20">
<path d="M-1.52588e-05 0.850037H20V19.1463H-1.52588e-05V0.850037Z" fill="white"/>
</mask>
<g mask="url(#mask0_16_152)">
<path d="M13.0346 0.848083H17.7408C18.3624 0.848083 18.9268 1.10127 19.3356 1.51089C19.7442 1.91965 19.9983 2.48495 19.9983 3.10561V9.21141C19.9983 9.83304 19.7452 10.3974 19.3356 10.8061C18.9268 11.2149 18.3615 11.4689 17.7408 11.4689H13.0346C12.4131 11.4689 11.8488 11.2149 11.44 10.8061C11.0312 10.3974 10.7772 9.83304 10.7772 9.21141V3.10561C10.7772 2.48408 11.0312 1.91965 11.44 1.51089C11.8488 1.10213 12.4131 0.848083 13.0346 0.848083ZM2.26196 6.03992H6.96817C7.33102 6.03992 7.66098 5.89091 7.89998 5.65181C8.13908 5.41184 8.28819 5.08275 8.28819 4.7199V3.10561C8.28819 2.74276 8.13908 2.4128 7.89998 2.1737C7.66001 1.93373 7.33005 1.78558 6.96817 1.78558H2.26196C1.89921 1.78558 1.56915 1.9347 1.33015 2.1737C1.09008 2.41377 0.942032 2.74276 0.942032 3.10561V4.7199C0.942032 5.08275 1.09105 5.41271 1.33015 5.65181C1.56915 5.89091 1.89921 6.03992 2.26196 6.03992ZM6.96817 6.97742H2.26196C1.64043 6.97742 1.076 6.72337 0.667341 6.31462C0.258583 5.90586 0.00453186 5.34056 0.00453186 4.7199V3.10561C0.00453186 2.48408 0.257618 1.91965 0.667341 1.51089C1.076 1.10213 1.6414 0.848083 2.26196 0.848083H6.96817C7.5897 0.848083 8.15413 1.10213 8.56279 1.51089C8.97155 1.91965 9.2256 2.48495 9.2256 3.10561V4.7199C9.2256 5.34153 8.97155 5.90586 8.56279 6.31462C8.15413 6.72337 7.58873 6.97742 6.96817 6.97742ZM2.26196 18.2085H6.96817C7.33102 18.2085 7.66098 18.0595 7.89998 17.8204C8.14005 17.5813 8.28819 17.2513 8.28819 16.8885V10.7827C8.28819 10.4198 8.14005 10.0899 7.89998 9.85078C7.66001 9.61082 7.33102 9.46267 6.96817 9.46267H2.26196C1.89921 9.46267 1.56915 9.61178 1.33015 9.85078C1.09008 10.0908 0.942032 10.4198 0.942032 10.7827V16.8885C0.942032 17.2513 1.09105 17.5813 1.33015 17.8204C1.56915 18.0604 1.89921 18.2085 2.26196 18.2085ZM6.96817 19.146H2.26196C1.64043 19.146 1.076 18.892 0.667341 18.4832C0.258583 18.0745 0.00453186 17.5092 0.00453186 16.8885V10.7827C0.00453186 10.1612 0.257618 9.59673 0.667341 9.18798C1.076 8.77931 1.6414 8.52517 2.26196 8.52517H6.96817C7.5897 8.52517 8.15413 8.77931 8.56279 9.18798C8.97155 9.59673 9.2256 10.1612 9.2256 10.7827V16.8885C9.2256 17.5101 8.97155 18.0745 8.56279 18.4832C8.15413 18.892 7.5897 19.146 6.96817 19.146ZM13.0356 13.0167H17.7418C18.3633 13.0167 18.9277 13.2707 19.3364 13.6795C19.7452 14.0882 19.9992 14.6535 19.9992 15.2742V16.8885C19.9992 17.5101 19.7452 18.0745 19.3364 18.4832C18.9277 18.892 18.3624 19.146 17.7418 19.146H13.0356C12.4141 19.146 11.8496 18.892 11.4409 18.4832C11.0322 18.0735 10.7781 17.5092 10.7781 16.8885V15.2742C10.7781 14.6527 11.0322 14.0882 11.4409 13.6795C11.8496 13.2707 12.4141 13.0167 13.0356 13.0167ZM17.7418 13.9542H13.0356C12.6727 13.9542 12.3428 14.1033 12.1037 14.3423C11.8637 14.5824 11.7156 14.9114 11.7156 15.2742V16.8885C11.7156 17.2513 11.8647 17.5813 12.1037 17.8204C12.3438 18.0604 12.6727 18.2085 13.0356 18.2085H17.7418C18.1046 18.2085 18.4346 18.0595 18.6736 17.8204C18.9137 17.5804 19.0617 17.2513 19.0617 16.8885V15.2742C19.0617 14.9114 18.9127 14.5814 18.6736 14.3423C18.4336 14.1033 18.1046 13.9542 17.7418 13.9542ZM17.7418 1.78558H13.0356C12.6727 1.78558 12.3428 1.9347 12.1037 2.1737C11.8637 2.4128 11.7156 2.74276 11.7156 3.10561V9.21141C11.7156 9.57426 11.8647 9.90422 12.1037 10.1433C12.3438 10.3833 12.6727 10.5314 13.0356 10.5314H17.7418C18.1046 10.5314 18.4346 10.3824 18.6736 10.1433C18.9137 9.90335 19.0617 9.57426 19.0617 9.21141V3.10561C19.0617 2.74276 18.9127 2.4128 18.6736 2.1737C18.4336 1.93373 18.1046 1.78558 17.7418 1.78558Z" fill="black"/>
</g>
</svg>
