<svg width="20" height="20" viewBox="0 0 20 20" fill="none" xmlns="http://www.w3.org/2000/svg">
<mask id="mask0_78_16" style="mask-type:luminance" maskUnits="userSpaceOnUse" x="0" y="5" width="18" height="15">
<path d="M0.5 5.06171H17.0864V20H0.5V5.06171Z" fill="white"/>
</mask>
<g mask="url(#mask0_78_16)">
<path fill-rule="evenodd" clip-rule="evenodd" d="M9.41048 12.5052L6.08216 16.7626L2.48639 20L4.8312 15.7845L8.15951 11.5272L9.41048 12.5047L17.0668 18.4899V18.4905L9.41048 12.5052Z" fill="#F3F3F4"/>
</g>
<path fill-rule="evenodd" clip-rule="evenodd" d="M9.41067 12.5052L6.08235 16.7627L2.48657 20L8.74969 11.9882L9.41067 12.5047L17.067 18.4899V18.4905L9.41067 12.5052Z" fill="#E6E6E6"/>
<path fill-rule="evenodd" clip-rule="evenodd" d="M8.25458 11.6011L3.20654 7.65519L3.57595 7.18268C4.08318 6.53328 5.19468 6.85417 6.00728 6.99142L8.22535 7.36632C8.23963 7.34645 8.254 7.32716 8.26943 7.30845L12.0471 2.4755L11.9231 2.37847C11.4682 2.02286 11.386 1.35793 11.7422 0.902009L12.0278 0.53704C12.384 0.081021 13.0484 2.41427e-06 13.5043 0.356195L16.2323 2.4893L18.9608 4.62182C19.4162 4.97792 19.4972 5.64285 19.1416 6.09829L18.856 6.46326C18.5004 6.91812 17.835 6.99971 17.3796 6.6441L17.2561 6.54707L13.4779 11.38C13.4657 11.3955 13.4481 11.418 13.432 11.4367L14.3313 13.4988C14.661 14.2535 15.2377 15.258 14.7327 15.9042L14.3633 16.3766L9.31534 12.4308L8.25458 11.6011Z" fill="#FFD630"/>
<path fill-rule="evenodd" clip-rule="evenodd" d="M17.2439 6.5625L12.0471 2.4755L11.923 2.37847C11.4682 2.02286 11.386 1.35793 11.7422 0.902009L12.0278 0.537039C12.384 0.081021 13.0483 2.42889e-06 13.5042 0.356195L16.2323 2.4893L18.9607 4.62182C19.4162 4.97792 19.4972 5.64285 19.1416 6.09829L18.856 6.46325C18.5004 6.91812 17.835 6.99971 17.3795 6.6441L17.2561 6.54707L17.2439 6.5625Z" fill="#F5BE18"/>
<path fill-rule="evenodd" clip-rule="evenodd" d="M3.6697 7.07959L14.7707 15.8518C14.7585 15.8694 14.7465 15.8871 14.7327 15.9042L14.3633 16.3767L9.31534 12.4309L8.25458 11.6011L3.20654 7.65521L3.57595 7.1827C3.60517 7.14469 3.63662 7.11103 3.6697 7.07959Z" fill="#F5BE18"/>
<path fill-rule="evenodd" clip-rule="evenodd" d="M17.2562 6.54706L16.154 5.70514L12.324 10.6114L14.1312 15.3462L14.7327 15.9042C15.2377 15.258 14.6611 14.2535 14.3313 13.4987L13.4321 11.4367C13.4481 11.418 13.4658 11.3954 13.4779 11.38L17.2562 6.54706Z" fill="#F5BE18"/>
</svg>
