<svg width="287" height="1108" viewBox="0 0 287 1108" fill="none" xmlns="http://www.w3.org/2000/svg">
<path d="M252.007 1106.92C251.962 1107.19 252.147 1107.45 252.419 1107.49C252.692 1107.54 252.949 1107.35 252.993 1107.08L252.007 1106.92ZM5.36737 -0.891704L5.62375 -1.32098L5.36737 -0.891704ZM238.889 748.924L238.421 749.098L238.889 748.924ZM284.884 908.704L285.377 908.785L284.884 908.704ZM280.089 859.568L279.62 859.742L280.089 859.568ZM0.743689 -3.07068L1.83552 -2.41862L2.34826 -3.27717L1.25644 -3.92923L0.743689 -3.07068ZM4.01918 -1.1145L5.111 -0.462431L5.62375 -1.32098L4.53191 -1.97304L4.01918 -1.1145ZM5.111 -0.462431C7.27529 0.83013 9.426 2.13845 11.563 3.46234L12.0897 2.61224C9.94802 1.28551 7.79268 -0.025633 5.62375 -1.32098L5.111 -0.462431ZM24.2423 11.6052C28.4339 14.3944 32.5693 17.245 36.6478 20.1552L37.2287 19.3411C33.1413 16.4246 28.997 13.5679 24.7963 10.7726L24.2423 11.6052ZM48.7757 29.1116C52.7777 32.1695 56.721 35.2865 60.6047 38.4607L61.2376 37.6864C57.3454 34.5053 53.3936 31.3816 49.3828 28.317L48.7757 29.1116ZM72.1187 48.1903C75.9093 51.5014 79.6386 54.8688 83.3059 58.2907L83.9881 57.5595C80.3129 54.1302 76.5754 50.7555 72.7766 47.4372L72.1187 48.1903ZM94.1549 68.7515C97.7185 72.3023 101.219 75.9064 104.654 79.5619L105.383 78.877C101.94 75.2136 98.4321 71.6017 94.8607 68.0431L94.1549 68.7515ZM114.797 90.7139C118.12 94.491 121.378 98.3181 124.569 102.193L125.341 101.558C122.143 97.6741 118.878 93.8386 115.547 90.0533L114.797 90.7139ZM133.959 113.986C137.026 117.971 140.026 122.002 142.957 126.078L143.769 125.495C140.832 121.41 137.825 117.369 134.751 113.376L133.959 113.986ZM151.554 138.459C154.354 142.634 157.084 146.853 159.742 151.113L160.591 150.583C157.926 146.314 155.191 142.086 152.385 137.902L151.554 138.459ZM167.513 164.028C170.033 168.377 172.482 172.766 174.858 177.192L175.739 176.719C173.358 172.283 170.904 167.885 168.378 163.526L167.513 164.028ZM181.77 190.587C184.001 195.09 186.158 199.629 188.241 204.201L189.151 203.787C187.064 199.204 184.902 194.656 182.666 190.143L181.77 190.587ZM194.264 218.018C196.196 222.656 198.053 227.326 199.833 232.025L200.768 231.671C198.984 226.961 197.123 222.282 195.187 217.634L194.264 218.018ZM204.943 246.206C206.568 250.96 208.116 255.741 209.587 260.548L210.543 260.255C209.069 255.438 207.518 250.646 205.889 245.883L204.943 246.206ZM213.76 275.031C215.071 279.878 216.304 284.749 217.457 289.643L218.431 289.413C217.275 284.509 216.039 279.628 214.725 274.77L213.76 275.031ZM220.675 304.368C221.667 309.289 222.579 314.231 223.41 319.191L224.396 319.025C223.563 314.055 222.649 309.102 221.656 304.17L220.675 304.368ZM225.658 334.096C226.325 339.072 226.912 344.063 227.417 349.069L228.412 348.968C227.906 343.952 227.318 338.95 226.649 333.963L225.658 334.096ZM228.684 364.09C229.023 369.095 229.281 374.112 229.457 379.14L230.456 379.105C230.28 374.066 230.022 369.038 229.681 364.022L228.684 364.09ZM229.737 394.208C229.747 399.224 229.676 404.248 229.522 409.279L230.521 409.309C230.676 404.268 230.747 399.233 230.737 394.206L229.737 394.208ZM228.813 424.337C228.495 429.342 228.094 434.353 227.611 439.366L228.606 439.462C229.091 434.438 229.492 429.417 229.811 424.4L228.813 424.337ZM225.918 454.347C225.274 459.316 224.547 464.286 223.738 469.255L224.725 469.416C225.536 464.436 226.264 459.455 226.909 454.476L225.918 454.347ZM221.073 484.086C220.588 486.553 220.083 489.019 219.557 491.485L220.535 491.693C221.062 489.223 221.569 486.751 222.054 484.279L221.073 484.086ZM219.557 491.485C219.051 493.857 218.563 496.232 218.095 498.609L219.076 498.802C219.544 496.43 220.03 494.06 220.535 491.693L219.557 491.485ZM215.509 512.921C214.721 517.709 214.01 522.505 213.374 527.307L214.365 527.438C214.999 522.646 215.709 517.861 216.495 513.083L215.509 512.921ZM211.694 541.752C211.209 546.579 210.801 551.41 210.469 556.244L211.466 556.312C211.798 551.489 212.205 546.668 212.689 541.852L211.694 541.752ZM209.7 570.767C209.521 575.614 209.417 580.461 209.39 585.307L210.39 585.313C210.417 580.477 210.52 575.64 210.7 570.804L209.7 570.767ZM209.537 599.85C209.663 604.697 209.864 609.541 210.142 614.38L211.141 614.323C210.863 609.494 210.662 604.66 210.537 599.824L209.537 599.85ZM211.204 628.885C211.634 633.713 212.141 638.535 212.722 643.349L213.715 643.229C213.135 638.426 212.63 633.614 212.2 628.796L211.204 628.885ZM214.695 657.758C215.428 662.548 216.236 667.329 217.12 672.097L218.104 671.915C217.222 667.157 216.415 662.387 215.684 657.606L214.695 657.758ZM219.996 686.354C221.028 691.088 222.136 695.808 223.319 700.512L224.288 700.269C223.109 695.574 222.003 690.864 220.973 686.141L219.996 686.354ZM227.086 714.559C228.414 719.217 229.816 723.858 231.293 728.481L232.245 728.176C230.772 723.564 229.372 718.933 228.047 714.285L227.086 714.559ZM235.937 742.263C236.746 744.547 237.574 746.825 238.421 749.098L239.358 748.749C238.513 746.481 237.687 744.208 236.879 741.929L235.937 742.263ZM238.421 749.098L240.996 756.014L241.933 755.665L239.358 748.749L238.421 749.098ZM246.145 769.844L251.295 783.674L252.233 783.326L247.083 769.495L246.145 769.844ZM256.445 797.505L261.595 811.335L262.532 810.986L257.382 797.156L256.445 797.505ZM266.745 825.166L271.895 838.996L272.832 838.647L267.682 824.817L266.745 825.166ZM277.045 852.827L279.62 859.742L280.557 859.393L277.982 852.478L277.045 852.827ZM279.62 859.742C280.344 861.685 281.002 863.648 281.597 865.626L282.554 865.339C281.954 863.34 281.288 861.357 280.557 859.393L279.62 859.742ZM284.388 877.717C285.056 881.803 285.458 885.928 285.593 890.066L286.592 890.034C286.456 885.852 286.049 881.684 285.374 877.555L284.388 877.717ZM285.192 902.468C284.992 904.524 284.725 906.577 284.391 908.623L285.377 908.785C285.715 906.717 285.985 904.642 286.187 902.565L285.192 902.468ZM284.391 908.623L283.234 915.705L284.221 915.867L285.377 908.785L284.391 908.623ZM280.921 929.869L278.608 944.033L279.595 944.195L281.908 930.031L280.921 929.869ZM276.295 958.197L273.981 972.361L274.968 972.523L277.281 958.359L276.295 958.197ZM271.668 986.525L269.355 1000.69L270.342 1000.85L272.655 986.687L271.668 986.525ZM267.042 1014.85L264.729 1029.02L265.716 1029.18L268.029 1015.01L267.042 1014.85ZM262.416 1043.18L260.103 1057.35L261.089 1057.51L263.403 1043.34L262.416 1043.18ZM257.789 1071.51L255.476 1085.67L256.463 1085.83L258.776 1071.67L257.789 1071.51ZM253.163 1099.84L252.007 1106.92L252.993 1107.08L254.15 1100L253.163 1099.84Z" fill="black"/>
</svg>
