<svg width="650" height="287" viewBox="0 0 650 287" fill="none" xmlns="http://www.w3.org/2000/svg">
<path fill-rule="evenodd" clip-rule="evenodd" d="M524.998 191.395C519.773 189.061 514.356 187.183 508.809 185.78L509.054 184.811C514.657 186.227 520.129 188.125 525.406 190.482L524.998 191.395ZM546.885 204.795C544.651 202.994 542.349 201.296 539.984 199.704L540.542 198.875C542.931 200.483 545.257 202.197 547.513 204.017L553.85 209.128L553.222 209.906L546.885 204.795ZM491.896 183.026C489.054 182.812 486.194 182.72 483.325 182.751L475.744 182.835L475.733 181.835L483.314 181.751C486.212 181.719 489.1 181.813 491.971 182.029L491.896 183.026ZM578.57 230.35L565.896 220.128L566.524 219.35L579.198 229.572L578.57 230.35ZM27.2366 6.33407C25.9732 5.91543 24.6786 5.58134 23.3611 5.33585L17.5208 4.24765L17.704 3.26457L23.5443 4.35276C24.9065 4.60658 26.2449 4.95199 27.5512 5.38483L27.2366 6.33407ZM37.5702 12.3006C36.5691 11.4095 35.512 10.5909 34.4072 9.84878L34.9648 9.01868C36.107 9.78599 37.2 10.6324 38.235 11.5536L44.1485 16.8167L43.4836 17.5637L37.5702 12.3006ZM460.583 183.002L445.422 183.169L445.411 182.169L460.572 182.002L460.583 183.002ZM5.84027 2.07127L0 0.98308L0.183173 0L6.02345 1.08819L5.84027 2.07127ZM603.918 250.794L591.244 240.572L591.872 239.793L604.546 250.015L603.918 250.794ZM67.1373 38.616L55.3105 28.0898L55.9753 27.3428L67.8021 37.869L67.1373 38.616ZM430.261 183.335L415.1 183.502L415.089 182.503L430.25 182.336L430.261 183.335ZM629.267 271.237L616.592 261.016L617.22 260.237L629.894 270.459L629.267 271.237ZM90.791 59.6684L78.9641 49.1422L79.629 48.3952L91.4558 58.9214L90.791 59.6684ZM648.278 286.57L641.941 281.459L642.568 280.681L648.906 285.792C649.12 285.965 649.154 286.28 648.981 286.495C648.807 286.71 648.493 286.743 648.278 286.57ZM399.939 183.669L384.777 183.836L384.766 182.836L399.928 182.669L399.939 183.669ZM114.445 80.7207L102.618 70.1945L103.283 69.4475L115.11 79.9737L114.445 80.7207ZM369.616 184.003L354.455 184.17L354.444 183.17L369.605 183.003L369.616 184.003ZM138.098 101.773L126.272 91.2469L126.936 90.4999L138.763 101.026L138.098 101.773ZM339.294 184.337L324.133 184.504L324.122 183.504L339.283 183.337L339.294 184.337ZM161.752 122.825L149.925 112.299L150.59 111.552L162.417 122.078L161.752 122.825ZM308.972 184.671L293.811 184.838L293.8 183.838L308.961 183.671L308.972 184.671ZM185.406 143.878L173.579 133.352L174.244 132.605L186.071 143.131L185.406 143.878ZM278.649 185.005L271.069 185.089C267.965 185.123 264.873 185.013 261.803 184.763L261.884 183.766C264.924 184.014 267.985 184.122 271.058 184.089L278.638 184.005L278.649 185.005ZM203.146 159.667L197.233 154.404L197.897 153.657L203.811 158.92C206.106 160.963 208.486 162.891 210.942 164.7L210.349 165.505C207.869 163.678 205.465 161.731 203.146 159.667ZM243.558 181.564C237.588 179.939 231.781 177.765 226.21 175.071L226.646 174.171C232.16 176.838 237.91 178.99 243.821 180.599L243.558 181.564Z" fill="black"/>
</svg>
